<?xml version="1.0" standalone="no"?>
<!DOCTYPE svg PUBLIC "-//W3C//DTD SVG 20010904//EN"
 "http://www.w3.org/TR/2001/REC-SVG-20010904/DTD/svg10.dtd">
<svg version="1.0" xmlns="http://www.w3.org/2000/svg"
 width="700.000000pt" height="700.000000pt" viewBox="0 0 700.000000 700.000000"
 preserveAspectRatio="xMidYMid meet">
<metadata>
Created by potrace 1.14, written by Peter Selinger 2001-2017
</metadata>
<g transform="translate(0.000000,700.000000) scale(0.100000,-0.100000)"
fill="#000000" stroke="none">
<path d="M4217 6044 c-1 -1 -56 -5 -122 -8 -66 -4 -133 -8 -150 -10 -29 -3
-138 -16 -180 -21 -96 -13 -364 -73 -865 -196 -562 -138 -652 -160 -669 -164
-9 -2 -65 -15 -125 -30 -59 -15 -116 -28 -125 -31 -9 -2 -36 -8 -61 -15 -25
-6 -52 -12 -60 -14 -8 -2 -42 -10 -75 -18 -33 -9 -71 -18 -85 -21 -26 -5 -415
-99 -670 -163 -244 -60 -460 -146 -560 -221 -264 -198 -377 -595 -281 -982 42
-169 126 -318 243 -433 l70 -69 3 -216 c2 -120 7 -451 10 -737 4 -286 8 -614
10 -730 2 -115 4 -281 5 -368 2 -203 18 -267 89 -357 46 -58 66 -75 121 -104
64 -33 91 -37 395 -51 72 -3 162 -8 200 -10 90 -5 261 -15 372 -20 49 -2 133
-7 188 -10 160 -9 329 -17 580 -30 28 -1 106 -5 175 -9 184 -10 261 -14 400
-21 69 -3 152 -7 185 -10 93 -8 334 -18 400 -18 38 1 144 21 285 56 276 68
757 186 785 192 11 2 40 9 65 16 25 6 52 12 60 14 8 2 110 27 225 55 116 29
217 53 226 55 9 2 33 8 55 14 21 5 71 17 109 26 154 36 668 162 765 187 65 17
96 31 135 63 105 86 133 174 130 405 -2 80 -6 388 -10 685 -4 297 -9 639 -10
760 -2 121 -4 307 -5 413 l-1 193 28 22 c49 37 124 120 160 176 263 406 133
1064 -262 1325 -92 62 -275 152 -395 196 -101 37 -365 110 -447 124 -53 9 -88
16 -113 21 -14 3 -38 7 -55 10 -16 3 -41 7 -55 10 -14 2 -45 7 -70 10 -25 3
-56 8 -70 10 -14 3 -50 7 -80 10 -30 3 -77 7 -103 11 -49 6 -69 8 -257 20 -91
6 -508 12 -513 8z m-2072 -879 c237 -13 544 -41 660 -60 312 -53 519 -112 695
-199 323 -160 485 -390 495 -701 5 -154 -22 -262 -93 -375 -45 -73 -83 -112
-168 -175 l-71 -53 3 -169 c1 -92 5 -397 9 -678 4 -280 8 -611 10 -735 10
-708 9 -757 -9 -786 l-18 -27 -157 7 c-86 4 -183 9 -216 11 -33 2 -114 6 -180
9 -66 4 -158 9 -205 11 -108 6 -254 14 -400 21 -63 3 -129 7 -147 8 -17 1 -34
4 -37 6 -2 3 -7 181 -10 395 -4 215 -9 519 -12 678 l-5 287 33 1 c327 7 595
225 687 560 117 421 -83 896 -455 1083 -112 56 -183 73 -344 81 -227 12 -260
14 -390 20 -74 3 -155 8 -179 10 -50 5 -93 -14 -117 -51 -20 -30 -20 -43 -10
-709 4 -258 8 -600 11 -760 2 -159 7 -497 11 -750 10 -720 10 -810 -1 -808 -6
1 -71 4 -145 8 -577 27 -543 22 -583 87 -24 39 -23 24 -31 673 -4 253 -9 638
-12 855 -3 217 -7 494 -8 614 l-3 219 -44 35 c-156 127 -257 286 -293 465 -19
97 -18 183 4 295 40 201 153 347 340 442 127 64 355 118 575 136 39 3 84 7
100 9 17 2 100 7 185 10 85 4 156 9 158 10 4 4 229 -2 367 -10z"/>
</g>
</svg>
