<svg xmlns="http://www.w3.org/2000/svg" viewBox="0 0 600 600"><path d="M535.89156,464.393c10.05276-3.04319,17.03023-12.59526,18.69078-22.73748a36.22331,36.22331,0,0,0,.51467-6.52058l-2.51227-185.7423c44.31507-30.49825,33.72311-111.64813-12.90448-134.62173C494.66,86.07757,388.09608,75.41816,321.66269,85.50706,276.445,93.85,228.2274,107.78871,183.35989,118.006c-21.24867,5.17759-54.18623,13.1686-75.2446,18.296-17.16458,4.35573-40.129,8.61878-55.79776,17.007l.00024-.00006C2.607,173.92564,1.12233,255.71126,43.04183,286.76909l2.51209,185.74219c.23779,17.5686,13.08362,32.47192,28.69421,33.2901l236.19421,12.37848a24.93516,24.93516,0,0,0,7.67811-.79786C319.41322,517.01807,534.57176,464.873,535.89156,464.393ZM322.93673,284.6931l-8.95184,6.59265.15033,11.1167,2.51245,185.74219c.11218,3.764-1.61278,8.39028-5.07313,8.43425-67.917-3.64015-168.92042-8.795-236.19432-12.37882-3.71845-.19465-8.10963-5.47114-8.19776-11.98133L64.67037,286.47661,64.535,276.45775c-17.7458-12.50521-30.2524-31.93669-30.27664-55.02681,2.3523-62.5604,64.04627-62.2309,125.68747-65.25684,72.57608,3.1091,180.03241,7.33613,182.88557,84.27783C343.07821,258.79851,335.64114,275.33641,322.93673,284.6931Z" style="fill:#fff"/><path d="M260.8591,303.23661c-.55065-40.71186-30.32027-75.25524-66.49978-77.15135L138.50349,223.158c-5.32615-.27914-9.58113,4.35709-9.50007,10.35127.53141,41.90554,3.08008,218.79279,3.72433,264.01384l65.50271,3.43286-1.877-127.43378C232.533,375.41832,261.40982,343.954,260.8591,303.23661Z" style="fill:#fff"/></svg>