<svg xmlns="http://www.w3.org/2000/svg" viewBox="0 0 600 600"><path d="M538.93713,464.36987c10.05276-3.04319,17.03023-12.59526,18.69078-22.73748a36.2232,36.2232,0,0,0,.51467-6.52057l-2.51227-185.74231c44.31507-30.49824,33.72311-111.64813-12.90448-134.62173C497.7056,86.05445,391.14165,75.395,324.70826,85.48394c-45.21771,8.34292-93.43529,22.28165-138.3028,32.49895-21.24867,5.1776-54.18623,13.1686-75.2446,18.296-17.16458,4.35572-40.129,8.61877-55.79776,17.007l.00024-.00006C5.65259,173.90252,4.1679,255.68814,46.0874,286.746l2.51209,185.74219c.23779,17.5686,13.08362,32.47192,28.69421,33.2901l236.19422,12.37848a24.93542,24.93542,0,0,0,7.6781-.79785C322.4588,516.995,537.61733,464.84987,538.93713,464.36987ZM325.9823,284.67l-8.95184,6.59265.15033,11.1167,2.51245,185.74219c.11218,3.764-1.61278,8.39028-5.07313,8.43425-67.917-3.64015-168.92042-8.795-236.19432-12.37882-3.71845-.19465-8.10963-5.47114-8.19776-11.98133L67.71594,286.45349l-.13537-10.01886c-17.7458-12.50521-30.2524-31.93669-30.27664-55.0268,2.35231-62.56041,64.04627-62.23091,125.68747-65.25685,72.57608,3.1091,180.03241,7.33613,182.88557,84.27783C346.12378,258.77539,338.68671,275.31329,325.9823,284.67Z" style="fill:#b23cfd"/><path d="M263.90467,303.21349c-.55065-40.71186-30.32026-75.25524-66.49978-77.15135l-55.85583-2.92725c-5.32615-.27914-9.58113,4.35709-9.50007,10.35127C132.5804,275.3917,135.12907,452.279,135.77332,497.5l65.50271,3.43286-1.877-127.43377C235.57855,375.3952,264.45539,343.93086,263.90467,303.21349Z" style="fill:#b23cfd"/></svg>